<?xml version="1.0"?><svg width="1000" height="1000" xmlns="http://www.w3.org/2000/svg">
 <title>Toilet Men</title>
 <g>
  <title>Layer 1</title>
  <g id="svg_1">
   <path id="svg_2" d="m879.229004,998.83551c65.98175,0 119.512939,-53.53125 119.512939,-119.262146l0,-760.771736c0,-65.981712 -53.531189,-119.391628 -119.512939,-119.391628l-760.650375,0c-65.916996,0 -119.391629,53.409916 -119.391629,119.391628l0,760.771736c0,65.730896 53.466546,119.262146 119.391629,119.262146l760.650375,0z"/>
   <path id="svg_3" d="m118.578629,19.634899c-54.671947,0 -99.102009,44.494778 -99.102009,99.166729l0,760.771736c0,54.477844 44.430061,98.915955 99.102009,98.915955l760.642319,0c54.736694,0 99.166687,-44.430054 99.166687,-98.915955l0,-760.771736c0,-54.671951 -44.429993,-99.166729 -99.166687,-99.166729l-760.642319,0z" fill="#FFFFFF"/>
   <path id="svg_4" d="m497.043152,225.928879c36.849731,0 66.928223,-29.83577 66.928223,-66.928253c0,-36.971092 -30.086548,-66.99295 -66.928223,-66.99295c-36.97113,0 -66.992981,30.021858 -66.992981,66.99295c-0.008087,37.100571 30.013763,66.928253 66.992981,66.928253z"/>
   <path id="svg_5" d="m406.087708,875.973328c0,20.72644 16.875671,37.731628 37.602173,37.731628s37.602112,-17.005188 37.602112,-37.731628l0,-315.257629l31.534668,0l0,315.257629c0,20.72644 16.681458,37.731628 37.416077,37.731628s37.602112,-17.005188 37.602112,-37.731628l0.315491,-543.48349l31.219177,0l0,200.355927c0,40.385071 52.455261,40.385071 52.269226,0l0,-204.781128c0,-44.430084 -34.382385,-87.913605 -86.465454,-87.913605l-177.914429,-0.315506c-47.399078,0 -85.575623,38.928879 -85.575623,87.031815l0,205.978424c0,39.948303 52.835541,39.948303 52.835541,0l0,-200.355927l31.793518,0l-0.234589,543.48349z"/>
  </g>
 </g>
</svg>